<svg width="600" height="530" viewBox="0 0 600 530" fill="none" xmlns="http://www.w3.org/2000/svg">
<rect width="600" height="530" fill="#F2F2F2"/>
<rect width="600" height="530" fill="#F7F7F7"/>
<rect x="102" y="18" width="396" height="346" rx="8" fill="#F2F2F2"/>
<path d="M102 26C102 21.5817 105.582 18 110 18H490C494.418 18 498 21.5817 498 26V45H102V26Z" fill="#C5CFD6"/>
<path fill-rule="evenodd" clip-rule="evenodd" d="M115 36C117.209 36 119 34.2091 119 32C119 29.7909 117.209 28 115 28C112.791 28 111 29.7909 111 32C111 34.2091 112.791 36 115 36Z" fill="#F2F2F2"/>
<path fill-rule="evenodd" clip-rule="evenodd" d="M127 36C129.209 36 131 34.2091 131 32C131 29.7909 129.209 28 127 28C124.791 28 123 29.7909 123 32C123 34.2091 124.791 36 127 36Z" fill="#F2F2F2"/>
<path fill-rule="evenodd" clip-rule="evenodd" d="M139 36C141.209 36 143 34.2091 143 32C143 29.7909 141.209 28 139 28C136.791 28 135 29.7909 135 32C135 34.2091 136.791 36 139 36Z" fill="#F2F2F2"/>
<rect x="412" y="150" width="70" height="194" rx="8" fill="white"/>
<rect x="430" y="168" width="34" height="26" rx="4" fill="#DDE3E9"/>
<rect x="430" y="202" width="34" height="25" rx="4" fill="#AFB9C5"/>
<rect x="430" y="235" width="34" height="25" rx="4" fill="#DDE3E9"/>
<rect x="430" y="301" width="34" height="25" rx="4" fill="#DDE3E9"/>
<rect x="430" y="268" width="34" height="25" rx="4" fill="#C5CFD6"/>
<rect x="412" y="61" width="70" height="81" rx="8" fill="white"/>
<path fill-rule="evenodd" clip-rule="evenodd" d="M447 108C455.837 108 463 100.837 463 92C463 83.1634 455.837 76 447 76C438.163 76 431 83.1634 431 92C431 100.837 438.163 108 447 108Z" fill="#DDE3E9"/>
<rect x="422" y="112" width="50" height="6" rx="3" fill="#DDE3E9"/>
<rect x="430" y="122" width="34" height="6" rx="3" fill="#DDE3E9"/>
<rect x="118" y="61" width="286" height="47" rx="4" fill="white"/>
<g clip-path="url(#clip0)">
<rect x="127" y="75.1" width="228" height="7.05" rx="3" fill="#DDE3E9"/>
<rect x="127" y="86.85" width="153.041" height="7.05" rx="3" fill="#DDE3E9"/>
</g>
<path fill-rule="evenodd" clip-rule="evenodd" d="M373.435 91.5C377.301 91.5 380.435 88.366 380.435 84.5C380.435 80.634 377.301 77.5 373.435 77.5C369.569 77.5 366.435 80.634 366.435 84.5C366.435 88.366 369.569 91.5 373.435 91.5Z" fill="#DDE3E9"/>
<path fill-rule="evenodd" clip-rule="evenodd" d="M373.435 87.5C375.092 87.5 376.435 86.1569 376.435 84.5C376.435 82.8431 375.092 81.5 373.435 81.5C371.778 81.5 370.435 82.8431 370.435 84.5C370.435 86.1569 371.778 87.5 373.435 87.5Z" fill="#F2F2F2"/>
<rect x="118" y="116" width="286" height="39" rx="4" fill="white"/>
<g clip-path="url(#clip1)">
<rect x="127" y="127.7" width="228" height="5.85" rx="2.925" fill="#DDE3E9"/>
<rect x="127" y="137.45" width="153.041" height="5.85" rx="2.925" fill="#DDE3E9"/>
</g>
<path fill-rule="evenodd" clip-rule="evenodd" d="M373.435 142.5C377.301 142.5 380.435 139.366 380.435 135.5C380.435 131.634 377.301 128.5 373.435 128.5C369.569 128.5 366.435 131.634 366.435 135.5C366.435 139.366 369.569 142.5 373.435 142.5Z" fill="#DDE3E9"/>
<path fill-rule="evenodd" clip-rule="evenodd" d="M373.435 138.5C375.092 138.5 376.435 137.157 376.435 135.5C376.435 133.843 375.092 132.5 373.435 132.5C371.778 132.5 370.435 133.843 370.435 135.5C370.435 137.157 371.778 138.5 373.435 138.5Z" fill="#F2F2F2"/>
<rect x="118" y="163" width="286" height="39" rx="4" fill="white"/>
<g clip-path="url(#clip2)">
<rect x="127" y="174.7" width="228" height="5.85" rx="2.925" fill="#DDE3E9"/>
<rect x="127" y="184.45" width="153.041" height="5.85" rx="2.925" fill="#DDE3E9"/>
</g>
<path fill-rule="evenodd" clip-rule="evenodd" d="M373.435 189.5C377.301 189.5 380.435 186.366 380.435 182.5C380.435 178.634 377.301 175.5 373.435 175.5C369.569 175.5 366.435 178.634 366.435 182.5C366.435 186.366 369.569 189.5 373.435 189.5Z" fill="#DDE3E9"/>
<path fill-rule="evenodd" clip-rule="evenodd" d="M373.435 185.5C375.092 185.5 376.435 184.157 376.435 182.5C376.435 180.843 375.092 179.5 373.435 179.5C371.778 179.5 370.435 180.843 370.435 182.5C370.435 184.157 371.778 185.5 373.435 185.5Z" fill="#AFB9C5"/>
<rect x="118" y="304" width="286" height="39" rx="4" fill="white"/>
<g clip-path="url(#clip3)">
<rect x="127" y="315.7" width="228" height="5.85" rx="2.925" fill="#DDE3E9"/>
<rect x="127" y="325.45" width="153.041" height="5.85" rx="2.925" fill="#DDE3E9"/>
</g>
<path fill-rule="evenodd" clip-rule="evenodd" d="M373.435 330.5C377.301 330.5 380.435 327.366 380.435 323.5C380.435 319.634 377.301 316.5 373.435 316.5C369.569 316.5 366.435 319.634 366.435 323.5C366.435 327.366 369.569 330.5 373.435 330.5Z" fill="#DDE3E9"/>
<path fill-rule="evenodd" clip-rule="evenodd" d="M373.435 326.5C375.092 326.5 376.435 325.157 376.435 323.5C376.435 321.843 375.092 320.5 373.435 320.5C371.778 320.5 370.435 321.843 370.435 323.5C370.435 325.157 371.778 326.5 373.435 326.5Z" fill="#F2F2F2"/>
<rect x="118" y="257" width="286" height="39" rx="4" fill="white"/>
<g clip-path="url(#clip4)">
<rect x="127" y="268.7" width="228" height="5.85" rx="2.925" fill="#DDE3E9"/>
<rect x="127" y="278.45" width="153.041" height="5.85" rx="2.925" fill="#DDE3E9"/>
</g>
<path fill-rule="evenodd" clip-rule="evenodd" d="M373.435 283.5C377.301 283.5 380.435 280.366 380.435 276.5C380.435 272.634 377.301 269.5 373.435 269.5C369.569 269.5 366.435 272.634 366.435 276.5C366.435 280.366 369.569 283.5 373.435 283.5Z" fill="#DDE3E9"/>
<path fill-rule="evenodd" clip-rule="evenodd" d="M373.435 279.5C375.092 279.5 376.435 278.157 376.435 276.5C376.435 274.843 375.092 273.5 373.435 273.5C371.778 273.5 370.435 274.843 370.435 276.5C370.435 278.157 371.778 279.5 373.435 279.5Z" fill="#F2F2F2"/>
<rect x="118" y="210" width="286" height="39" rx="4" fill="white"/>
<g clip-path="url(#clip5)">
<rect x="127" y="221.7" width="228" height="5.85" rx="2.925" fill="#DDE3E9"/>
<rect x="127" y="231.45" width="153.041" height="5.85" rx="2.925" fill="#DDE3E9"/>
</g>
<path fill-rule="evenodd" clip-rule="evenodd" d="M373.435 236.5C377.301 236.5 380.435 233.366 380.435 229.5C380.435 225.634 377.301 222.5 373.435 222.5C369.569 222.5 366.435 225.634 366.435 229.5C366.435 233.366 369.569 236.5 373.435 236.5Z" fill="#DDE3E9"/>
<path fill-rule="evenodd" clip-rule="evenodd" d="M373.435 232.5C375.092 232.5 376.435 231.157 376.435 229.5C376.435 227.843 375.092 226.5 373.435 226.5C371.778 226.5 370.435 227.843 370.435 229.5C370.435 231.157 371.778 232.5 373.435 232.5Z" fill="#F2F2F2"/>
<path fill-rule="evenodd" clip-rule="evenodd" d="M431.612 195.738C425.648 200.188 419.55 202.716 416.487 202.335C408.804 201.381 404.784 175.52 409.232 164.618C413.68 153.716 442.73 145.785 446.828 165.872C448.251 172.843 445.956 179.483 442.033 185.141L454.937 220.639L431.071 223.438L431.612 195.738Z" fill="#B28B67"/>
<path fill-rule="evenodd" clip-rule="evenodd" d="M421.32 151.236C424.402 150.376 432.828 149.046 434.39 148.863C435.388 148.746 436.497 148.836 436.976 147.894C437.368 147.123 437.036 145.935 437.074 145.089C437.118 144.106 437.234 143.127 437.353 142.15C437.692 139.371 438.399 136.682 439.54 134.101C441.681 129.259 445.215 125.248 449.986 122.596C455.254 119.668 461.48 118.409 467.521 118.169C473.986 117.912 480.04 119.245 486.327 120.43C492.318 121.559 498.442 121.561 504.353 119.974C510.308 118.375 514.491 114.705 519.228 111.132C524.078 107.474 529.811 104.781 536.065 104.512C541.904 104.261 547.526 105.91 552.699 108.386C557.538 110.704 561.67 113.69 564.373 118.257C567.281 123.17 568.009 128.852 564.91 133.859C560.418 141.116 550.716 143.995 542.44 144.792C537.652 145.254 532.856 144.974 528.154 143.993C521.884 142.684 516.25 139.881 510.27 137.772C507.463 136.782 504.598 136.035 501.639 135.602C498.768 135.181 495.991 135.159 493.684 137.05C491.243 139.05 489.075 140.988 486.17 142.402C483.383 143.758 480.366 144.687 477.256 145.029C471.203 145.693 465.012 144.598 458.985 144.085C454.07 143.667 448.82 143.292 444.059 144.806C442.072 145.438 439.201 146.598 438.724 148.701C451.384 149.386 458.123 163.399 456.008 174.514C454.866 180.513 444.407 188.596 439.612 186.074C436.575 184.477 437.944 181.752 438.826 179.956C440.514 176.515 440.705 172.329 436.535 170.56C432.937 169.035 430 174.003 429.932 174.006C429.002 174.045 420.494 170.693 414.207 165.082C408.837 166.022 407.58 162.722 408.514 159.794C409.449 156.865 417.061 152.425 421.32 151.236Z" fill="#191847"/>
<path fill-rule="evenodd" clip-rule="evenodd" d="M483.137 300.938C481.331 324.414 364.953 393.529 364.274 395.468C363.821 396.761 400.498 477.202 400.498 477.202L390.325 480.966C390.325 480.966 334.069 395.773 336.959 386.696C341.096 373.699 427.255 301.188 427.255 301.188L483.137 300.938Z" fill="#B28B67"/>
<path fill-rule="evenodd" clip-rule="evenodd" d="M397.821 465.091L381.212 470.847C346.189 433.222 332.461 402.178 334.964 386.361C337.467 370.544 424.948 300.996 424.948 300.996L484.328 300.996C482.302 355.362 374.435 395.675 372.992 397.992C371.549 400.309 385.748 422.999 397.821 465.091Z" fill="#89C5CC"/>
<path fill-rule="evenodd" clip-rule="evenodd" d="M401.277 475.229C402.116 474.463 403.457 474.492 404.223 475.364C405.596 476.926 407.538 479.297 408.118 480.814C409.045 483.239 409.975 488.185 409.975 488.185C407.02 489.208 356.875 506.586 356.875 506.586C356.875 506.586 352.314 500.788 356.575 498.723C360.836 496.659 363.626 495.218 363.626 495.218L384.314 476.177C384.716 475.807 385.356 475.834 385.743 476.238L388.725 479.346C388.725 479.346 393.554 479.749 396.135 478.855C397.717 478.306 399.857 476.526 401.277 475.229Z" fill="#E4E4E4"/>
<path fill-rule="evenodd" clip-rule="evenodd" d="M469.756 300.938L521.599 419.441L572.553 519.624H560.531L429.006 300.938H469.756Z" fill="#997659"/>
<path fill-rule="evenodd" clip-rule="evenodd" d="M570.555 513.908C571.607 513.466 572.841 513.929 573.247 514.996C573.977 516.911 574.953 519.778 574.953 521.394C574.953 523.975 574.05 528.925 574.05 528.925C570.906 528.925 517.543 528.925 517.543 528.925C517.543 528.925 515.34 521.992 520.086 521.439C524.831 520.886 527.97 520.44 527.97 520.44L554.262 509.281C554.768 509.066 555.352 509.3 555.57 509.804L557.257 513.699C557.257 513.699 561.65 515.651 564.397 515.651C566.087 515.651 568.754 514.666 570.555 513.908Z" fill="#E4E4E4"/>
<path fill-rule="evenodd" clip-rule="evenodd" d="M567.951 498.812L541.239 503.582C520.586 474.671 434.149 356.124 424.672 300.938H484.139C515.787 340.832 548.264 469.423 567.951 498.812Z" fill="#89C5CC"/>
<path fill-rule="evenodd" clip-rule="evenodd" d="M340.208 272.251L378.177 283.093L368.476 298.476L338.957 281.94C325.175 281.163 318.663 279.871 319.423 278.064C320.063 276.54 321.585 276.28 322.987 276.04C324.079 275.853 325.098 275.679 325.571 274.93C326.65 273.218 322.87 268.765 319.094 264.685C315.317 260.605 318.34 260.414 320.167 260.74C326.445 263.166 333.126 267.003 340.208 272.251ZM504.501 276.4L524.383 270.161C542.661 303.222 553.344 321.26 556.43 324.278C558.693 326.49 571.523 331.368 580.092 333.772C583.532 334.737 583.168 337.447 582.318 338.4C576.958 344.411 571.101 343.211 564.727 341.905C562.881 341.527 560.992 341.14 559.059 340.916C554.056 340.337 552.884 342.888 551.776 345.299C550.796 347.433 549.865 349.457 546.371 349.103C546.444 348.45 546.543 347.716 546.649 346.925C547.335 341.808 548.348 334.262 544.904 330.35C543.136 328.343 529.668 310.359 504.501 276.4Z" fill="#B28B67"/>
<path fill-rule="evenodd" clip-rule="evenodd" d="M439.289 206.455L430.51 206.059C414.005 225.553 411.705 268.008 399.931 274.973C388.799 281.557 371.423 278.486 350.665 274.022L346.241 287.69C366.701 304.182 407.212 315.392 421.659 304.587C444.757 287.311 443.926 235.379 439.289 206.455Z" fill="#FF9B21"/>
<path fill-rule="evenodd" clip-rule="evenodd" d="M490.002 304.947C490.002 304.947 438.285 311.011 413.918 313.869C410.441 314.276 410.482 309.42 410.674 306.949C412.896 278.432 431.68 245.771 426.585 206.146L448.11 200.296C469.836 225.964 480.514 259.451 490.002 304.947Z" fill="#DDE3E9"/>
<path fill-rule="evenodd" clip-rule="evenodd" d="M449.275 200.159L449.526 200.13C502.464 223.24 537.969 264.522 556.041 323.978L540.475 328.822C528.405 318.343 512.902 300.693 493.967 275.874C500.788 291.362 506.379 307.413 509.463 322.848L440.976 330.879C423.616 300.531 440.836 201.149 440.836 201.149L445.565 200.594L449.275 200.159Z" fill="#FF9B21"/>
<defs>
<clipPath id="clip0">
<rect x="127" y="75.1" width="228" height="19" fill="white"/>
</clipPath>
<clipPath id="clip1">
<rect x="127" y="127.7" width="228" height="16" fill="white"/>
</clipPath>
<clipPath id="clip2">
<rect x="127" y="174.7" width="228" height="16" fill="white"/>
</clipPath>
<clipPath id="clip3">
<rect x="127" y="315.7" width="228" height="16" fill="white"/>
</clipPath>
<clipPath id="clip4">
<rect x="127" y="268.7" width="228" height="16" fill="white"/>
</clipPath>
<clipPath id="clip5">
<rect x="127" y="221.7" width="228" height="16" fill="white"/>
</clipPath>
</defs>
</svg>
